<svg width="952" height="600" viewBox="0 0 952 600" fill="none" xmlns="http://www.w3.org/2000/svg">
<g clip-path="url(#clip0_43_42)">
<path d="M165.216 68.3531C157.023 68.3623 149.169 71.6209 143.376 77.414C137.583 83.207 134.324 91.0615 134.315 99.2541V435.2C134.324 443.392 137.583 451.247 143.376 457.04C149.169 462.833 157.023 466.091 165.216 466.1H861.545C869.737 466.091 877.592 462.833 883.385 457.04C889.178 451.247 892.436 443.392 892.446 435.2V99.254C892.436 91.0614 889.178 83.207 883.385 77.414C877.592 71.6209 869.737 68.3623 861.545 68.3531H165.216Z" fill="white"/>
<path d="M861.545 467.306H165.216C156.704 467.296 148.543 463.91 142.524 457.891C136.505 451.872 133.119 443.712 133.11 435.199V99.254C133.119 90.7419 136.505 82.5811 142.524 76.5621C148.543 70.5431 156.704 67.1574 165.216 67.1478H861.545C870.057 67.1574 878.218 70.5432 884.237 76.5622C890.255 82.5812 893.641 90.7419 893.651 99.254V435.199C893.641 443.712 890.255 451.872 884.237 457.891C878.218 463.91 870.057 467.296 861.545 467.306ZM165.216 69.5584C157.343 69.5672 149.795 72.6987 144.228 78.2658C138.661 83.8329 135.529 91.381 135.52 99.2541V435.199C135.529 443.072 138.661 450.621 144.228 456.188C149.795 461.755 157.343 464.886 165.216 464.895H861.545C869.418 464.886 876.966 461.755 882.533 456.188C888.1 450.621 891.232 443.072 891.24 435.199V99.254C891.231 91.381 888.1 83.8329 882.533 78.2658C876.966 72.6987 869.418 69.5672 861.545 69.5584H165.216Z" fill="#3F3D56"/>
<path d="M366.136 448.488C366.189 447.139 362.056 445.88 356.905 445.675C351.753 445.471 347.533 446.399 347.48 447.748C347.426 449.097 351.559 450.356 356.711 450.56C361.863 450.765 366.082 449.837 366.136 448.488Z" fill="#E6E6E6"/>
<path d="M425.56 445.341C425.613 443.992 421.481 442.733 416.329 442.528C411.177 442.324 406.958 443.252 406.904 444.6C406.851 445.949 410.983 447.209 416.135 447.413C421.287 447.617 425.506 446.69 425.56 445.341Z" fill="#3F3D56"/>
<path d="M343.304 430.152C343.357 428.803 339.224 427.544 334.073 427.339C328.921 427.135 324.701 428.063 324.648 429.412C324.594 430.761 328.727 432.02 333.879 432.224C339.031 432.429 343.25 431.501 343.304 430.152Z" fill="#FF6584"/>
<path d="M314.602 423.453C314.739 422.249 313.003 421.062 310.724 420.802C308.445 420.543 306.487 421.308 306.35 422.513C306.212 423.717 307.948 424.904 310.227 425.163C312.506 425.423 314.465 424.657 314.602 423.453Z" fill="#E6E6E6"/>
<path d="M300.888 409.408C301.026 408.204 299.289 407.017 297.011 406.757C294.732 406.497 292.773 407.263 292.636 408.467C292.498 409.672 294.235 410.859 296.513 411.118C298.792 411.378 300.751 410.612 300.888 409.408Z" fill="#3F3D56"/>
<path d="M378.39 433.323C378.527 432.119 376.791 430.932 374.512 430.672C372.233 430.412 370.275 431.178 370.137 432.383C370 433.587 371.736 434.774 374.015 435.033C376.294 435.293 378.253 434.527 378.39 433.323Z" fill="#E6E6E6"/>
<path d="M351.193 439.3C351.33 438.095 349.594 436.908 347.315 436.649C345.037 436.389 343.078 437.155 342.941 438.359C342.803 439.563 344.54 440.75 346.818 441.01C349.097 441.27 351.056 440.504 351.193 439.3Z" fill="#FF6584"/>
<path d="M395.183 448.927C395.32 447.722 393.584 446.536 391.305 446.276C389.027 446.016 387.068 446.782 386.931 447.986C386.793 449.191 388.53 450.377 390.808 450.637C393.087 450.897 395.046 450.131 395.183 448.927Z" fill="#3F3D56"/>
<path d="M6.3483e-06 399.088C-0.000555403 399.277 0.0361696 399.463 0.108056 399.638C0.179941 399.812 0.285581 399.97 0.418888 400.104C0.552194 400.237 0.710535 400.343 0.884814 400.414C1.05909 400.486 1.24587 400.523 1.43438 400.522H1019.05C1019.43 400.522 1019.8 400.371 1020.07 400.102C1020.34 399.833 1020.49 399.469 1020.49 399.088C1020.49 398.708 1020.34 398.343 1020.07 398.074C1019.8 397.805 1019.43 397.654 1019.05 397.654H1.43431C1.2458 397.653 1.05905 397.69 0.884777 397.762C0.710509 397.834 0.552167 397.939 0.418869 398.073C0.285571 398.206 0.179939 398.364 0.108056 398.539C0.0361718 398.713 -0.000548958 398.9 6.3483e-06 399.088Z" fill="#CCCCCC"/>
<path d="M347.834 373.748C347.141 373.779 346.455 373.598 345.869 373.226C345.283 372.855 344.825 372.313 344.557 371.673C344.289 371.033 344.225 370.326 344.373 369.648C344.52 368.97 344.872 368.354 345.382 367.883L345.614 366.961C345.583 366.887 345.553 366.813 345.522 366.74C344.823 365.091 343.653 363.684 342.159 362.698C340.664 361.712 338.911 361.189 337.12 361.196C335.329 361.202 333.58 361.738 332.093 362.735C330.605 363.733 329.446 365.148 328.76 366.802C326.018 373.405 322.528 380.019 321.669 387C321.29 390.086 321.45 393.214 322.141 396.245C315.702 382.2 312.358 366.934 312.337 351.482C312.335 347.605 312.551 343.731 312.982 339.877C313.338 336.718 313.833 333.582 314.465 330.468C317.916 313.572 325.326 297.736 336.086 284.26C341.293 281.419 345.505 277.049 348.153 271.741C349.112 269.832 349.79 267.795 350.166 265.692C349.578 265.77 347.951 256.823 348.394 256.274C347.575 255.031 346.11 254.414 345.216 253.202C340.769 247.173 334.642 248.225 331.444 256.418C324.611 259.867 324.545 265.585 328.738 271.086C331.405 274.585 331.771 279.32 334.111 283.066C333.871 283.374 333.62 283.673 333.38 283.981C328.978 289.64 325.142 295.718 321.927 302.125C322.709 294.947 321.775 287.685 319.203 280.938C316.597 274.649 311.711 269.353 307.408 263.917C302.24 257.387 291.643 260.237 290.732 268.515C290.723 268.595 290.715 268.675 290.706 268.755C291.345 269.115 291.971 269.498 292.583 269.903C293.352 270.417 293.948 271.151 294.292 272.009C294.637 272.867 294.714 273.809 294.514 274.712C294.314 275.615 293.846 276.436 293.171 277.069C292.497 277.701 291.646 278.115 290.732 278.256L290.639 278.27C290.866 280.573 291.269 282.856 291.843 285.098C286.323 306.444 298.239 314.219 315.255 314.568C315.63 314.761 315.996 314.953 316.372 315.136C313.141 324.292 311.114 333.829 310.343 343.508C309.906 349.218 309.932 354.954 310.42 360.66L310.391 360.458C309.158 354.113 305.774 348.388 300.809 344.25C293.434 338.192 283.016 335.961 275.06 331.092C274.215 330.549 273.232 330.259 272.227 330.257C271.222 330.255 270.238 330.539 269.39 331.078C268.542 331.617 267.865 332.387 267.44 333.297C267.016 334.208 266.86 335.221 266.992 336.217C267.003 336.288 267.013 336.359 267.024 336.429C268.21 336.913 269.365 337.469 270.482 338.096C271.121 338.456 271.746 338.839 272.359 339.244C273.127 339.757 273.723 340.491 274.068 341.349C274.413 342.208 274.49 343.15 274.29 344.053C274.09 344.956 273.622 345.777 272.947 346.409C272.272 347.042 271.422 347.455 270.508 347.596L270.414 347.611C270.347 347.62 270.289 347.63 270.222 347.64C272.248 352.478 275.092 356.931 278.629 360.805C282.081 379.439 296.904 381.207 312.76 375.78H312.77C314.51 383.34 317.03 390.699 320.292 397.738H347.161C347.257 397.439 347.344 397.131 347.431 396.833C344.944 396.989 342.447 396.84 339.996 396.39C341.989 393.944 343.983 391.478 345.976 389.032C346.021 388.986 346.063 388.938 346.102 388.888C347.113 387.636 348.134 386.393 349.145 385.141L349.145 385.14C349.199 381.302 348.759 377.473 347.835 373.748L347.834 373.748Z" fill="#F2F2F2"/>
<path d="M213.7 358.839C212.576 358.891 211.464 358.596 210.513 357.994C209.563 357.392 208.82 356.513 208.386 355.475C207.952 354.437 207.848 353.291 208.087 352.192C208.326 351.093 208.898 350.093 209.724 349.33C209.862 348.78 209.961 348.385 210.1 347.835C210.05 347.716 210 347.596 209.95 347.477C208.818 344.802 206.921 342.523 204.498 340.923C202.074 339.324 199.232 338.476 196.328 338.487C193.424 338.498 190.588 339.367 188.176 340.984C185.765 342.601 183.885 344.895 182.772 347.578C178.327 358.283 172.668 369.007 171.275 380.327C170.661 385.331 170.92 390.403 172.04 395.318C161.599 372.544 156.178 347.791 156.143 322.738C156.141 316.451 156.49 310.169 157.189 303.921C157.767 298.799 158.569 293.714 159.594 288.665C165.19 261.269 177.204 235.592 194.651 213.742C203.095 209.135 209.923 202.05 214.217 193.442C215.772 190.348 216.871 187.045 217.48 183.636C216.528 183.761 213.889 169.254 214.607 168.364C213.28 166.349 210.904 165.348 209.454 163.383C202.244 153.607 192.31 155.314 187.124 168.598C176.046 174.189 175.938 183.462 182.736 192.38C187.061 198.054 187.655 205.731 191.45 211.806C191.059 212.305 190.653 212.79 190.263 213.289C183.126 222.466 176.907 232.319 171.693 242.709C172.961 231.069 171.447 219.295 167.277 208.355C163.05 198.159 155.128 189.572 148.152 180.757C139.772 170.17 122.589 174.79 121.113 188.212C121.099 188.342 121.085 188.472 121.071 188.601C122.107 189.186 123.122 189.806 124.114 190.463C125.361 191.296 126.327 192.486 126.886 193.877C127.444 195.269 127.57 196.797 127.245 198.261C126.921 199.724 126.162 201.056 125.068 202.081C123.974 203.107 122.595 203.777 121.113 204.006L120.962 204.029C121.331 207.764 121.983 211.465 122.914 215.101C113.964 249.712 133.286 262.318 160.875 262.884C161.484 263.196 162.077 263.508 162.686 263.805C157.447 278.651 154.162 294.115 152.911 309.808C152.203 319.066 152.245 328.367 153.036 337.619L152.989 337.291C150.99 327.003 145.502 317.721 137.452 311.01C125.495 301.188 108.602 297.571 95.7026 289.676C89.4933 285.876 81.5365 290.787 82.6201 297.986C82.6374 298.101 82.655 298.216 82.6729 298.331C84.5958 299.114 86.468 300.016 88.2787 301.032C89.3149 301.617 90.3292 302.237 91.3217 302.893C92.5684 303.727 93.5345 304.917 94.0933 306.308C94.6521 307.7 94.7775 309.227 94.4532 310.691C94.1288 312.155 93.3699 313.487 92.2757 314.512C91.1815 315.537 89.8031 316.208 88.3212 316.437L88.1693 316.46C88.0601 316.476 87.9663 316.491 87.8572 316.507C91.1427 324.352 95.7541 331.573 101.489 337.853C107.085 368.067 131.12 370.934 156.83 362.135H156.846C159.667 374.393 163.754 386.325 169.041 397.738H212.608C212.765 397.254 212.905 396.754 213.046 396.27C209.013 396.524 204.964 396.283 200.99 395.552C204.223 391.586 207.455 387.588 210.688 383.622C210.76 383.548 210.827 383.469 210.891 383.387C212.53 381.358 214.185 379.343 215.825 377.313L215.826 377.311C215.913 371.088 215.199 364.88 213.701 358.84L213.7 358.839Z" fill="#F2F2F2"/>
<path d="M809.946 21.7442C807.02 -0.674035 755.311 0.756042 750.428 21.8479C747.838 20.228 741.25 21.3493 738.792 23.2112C736.335 25.0732 734.76 27.8105 733.218 30.4676C731.113 34.1582 728.931 37.9809 728.465 42.2125C727.979 46.4359 729.639 51.2204 733.468 53.101C736.505 54.5996 743.189 53.5876 746.529 52.9167C748.859 52.4534 750.814 52.0477 752.474 51.6498C753.032 49.0248 752.647 46.2872 751.388 43.9176C752.729 44.1839 753.995 44.7439 755.095 45.5574C756.194 46.3708 757.1 47.4175 757.748 48.6224C758.009 49.1271 767.483 120.441 767.483 120.441C770.073 120.753 772.686 120.818 775.288 120.635C776.903 111.859 777.197 102.89 776.16 94.0266C778.904 99.0927 781.074 104.449 782.631 109.996C783.523 113.098 784.256 116.244 784.827 119.421C807.374 115.205 837.851 100.684 843.412 76.0264C843.382 75.9468 843.351 75.8673 843.32 75.7878C843.016 75.0342 842.984 74.1985 843.228 73.4237C843.473 72.6488 843.979 71.983 844.661 71.5405C845.342 71.0979 846.156 70.9059 846.963 70.9976C847.771 71.0892 848.521 71.4587 849.086 72.0427C849.766 72.7423 850.372 73.3402 850.884 73.8035C848.907 58.0569 836.963 43.8871 809.946 21.7442Z" fill="#2F2E41"/>
<path d="M480.741 570.788L468.101 564.179L488.145 511.191L506.801 520.945L480.741 570.788Z" fill="#A0616A"/>
<path d="M429.736 570.149C428.954 571.649 428.799 573.397 429.304 575.011C429.809 576.624 430.934 577.972 432.431 578.757L457.565 591.896L466.571 585.202L463.583 595.036L473.063 600L487.104 566.658L483.903 564.741L470.864 556.887L466.653 554.362L461.924 563.408L434.603 566.776C433.58 566.902 432.602 567.276 431.754 567.863C430.907 568.451 430.214 569.235 429.736 570.149Z" fill="#2F2E41"/>
<path d="M467.791 375.717L458.597 364.812L497.224 323.369L510.793 339.464L467.791 375.717Z" fill="#A0616A"/>
<path d="M420.831 355.8C419.539 356.891 418.733 358.45 418.589 360.135C418.445 361.82 418.975 363.493 420.064 364.788L438.345 386.469L449.216 383.687L442.725 391.656L449.617 399.842L475.244 374.306L473.008 371.319L463.918 359.11L460.978 355.178L453.173 361.757L426.614 354.523C425.618 354.252 424.572 354.227 423.565 354.449C422.558 354.672 421.62 355.135 420.831 355.8Z" fill="#2F2E41"/>
<path d="M873.275 334.852C873.275 334.852 912.309 418.402 750.661 395.889C750.661 395.889 664.537 300.444 667.025 288.96C667.025 288.96 630.37 251.714 632.163 251.036C633.957 250.357 635.063 248.885 632.1 249.018C629.136 249.152 629.136 244.74 629.136 244.74C629.136 244.74 562.891 316.579 507.112 352.228L487.827 330.533C487.827 330.533 495.348 307.006 498.964 307.006C502.58 307.006 503.826 307.875 504.408 303.222C504.991 298.569 502.111 294.574 505.961 294.161C509.812 293.748 589.612 200.483 589.612 200.483C589.612 200.483 598.221 169.763 624.526 175.71C650.831 181.656 787.518 292.785 787.518 292.785L873.275 334.852Z" fill="#2F2E41"/>
<path d="M807.449 398.596L593.893 396.824L501.085 543.87L474.858 529.986L480.672 527.532C480.672 527.532 478.912 507.094 481.068 501.921C483.224 496.747 489.639 498.303 489.639 498.303L543.748 373.52C547.48 362.444 554.811 352.935 564.573 346.509C574.336 340.082 585.968 337.107 597.617 338.057C642.39 331.528 715.069 336.745 790.575 343.152L807.449 398.596Z" fill="#2F2E41"/>
<path d="M683.807 148.339C687.872 148.962 691.533 151.147 694.012 154.428C696.491 157.71 697.591 161.829 697.079 165.909C696.962 166.737 696.777 167.554 696.525 168.351L740.406 201.636L731.351 229.844L676.169 177.749C672.944 176.449 670.24 174.118 668.48 171.119C666.719 168.121 666.001 164.624 666.437 161.175C666.704 159.214 667.354 157.326 668.351 155.616C669.347 153.907 670.671 152.411 672.246 151.214C673.821 150.016 675.616 149.14 677.53 148.637C679.443 148.133 681.437 148.011 683.397 148.278C683.534 148.297 683.671 148.317 683.807 148.339Z" fill="#A0616A"/>
<path d="M877.392 150.417L861.615 194.097L799.916 281.288C799.916 281.288 799.409 281.071 798.493 280.685C793.19 278.395 773.93 269.982 755.814 260.424C738.807 251.445 722.789 241.453 720.306 234.583C720.041 233.86 719.8 233.161 719.583 232.486V232.474C718.426 228.975 717.702 225.348 717.425 221.674C717.22 218.842 717.401 217.323 717.016 217.142C716.714 217.01 716.087 217.661 714.701 219.131C714.605 219.227 714.521 219.324 714.424 219.408C709.41 224.434 703.251 223.783 704.758 221.397C706.3 218.95 705.493 218.998 703.227 216.443C701.54 214.539 696.055 207.09 693.356 203.414C692.428 202.148 691.837 201.329 691.837 201.329L692.765 199.87L695.332 195.845L707.542 176.705L708.217 175.656C708.217 175.656 733.311 181.453 736.65 186.962C740 192.47 731.6 192.289 740 192.47C748.401 192.651 756.971 181.224 750.836 192.59C744.701 203.944 746.316 207.91 753.91 206.114C756.995 205.379 761.877 207.705 766.577 210.718V210.73C769.517 212.64 772.353 214.704 775.075 216.913C777.979 219.251 779.944 221.023 779.944 221.023L827.601 124.334L832.88 113.631C834.489 110.375 836.731 107.471 839.476 105.091C842.22 102.711 845.411 100.902 848.863 99.7705L850.514 102.651C860.795 117.792 869.786 133.771 877.392 150.417Z" fill="#455D7A"/>
<path d="M880.032 289.05C894.64 292.449 879.099 398.786 861.687 399.118C735.131 401.528 773.664 330.524 766.878 323.727C760.093 316.917 753.97 321.798 760.093 311.204C764.552 303.49 771.169 304.635 771.266 300.308C771.314 298.693 770.458 296.33 768.24 292.449C760.093 278.178 760.093 273.924 760.093 273.924C758.062 269.639 756.622 265.097 755.814 260.424C754.492 253.476 754.329 246.357 755.332 239.356C756.862 229.085 760.707 219.296 766.577 210.73V210.718C767.192 209.802 767.831 208.874 768.506 207.958C770.036 205.873 778.522 206.271 778.522 206.271L796.601 130.337L786.139 100.06L835.689 76.8459L848.863 99.7706L850.514 102.651C860.795 117.793 869.786 133.771 877.392 150.417C884.708 166.701 890.723 184.78 890.94 200.509C891.518 241.525 884.443 253.723 884.443 253.723C884.443 253.723 901.618 266.559 893.025 274.406C884.443 282.264 865.423 285.651 880.032 289.05Z" fill="#455D7A"/>
<path d="M655.558 138.349L647.473 144.491C645.876 145.712 644.829 147.516 644.559 149.508C644.29 151.501 644.822 153.518 646.037 155.12L665.508 180.712L677.006 195.812C678.225 197.406 680.026 198.452 682.016 198.721C684.005 198.99 686.019 198.459 687.618 197.246L695.712 191.097C697.302 189.872 698.344 188.069 698.612 186.08C698.879 184.091 698.349 182.076 697.139 180.476L695.946 178.899L672.358 147.908L666.17 139.784C665.568 138.993 664.815 138.328 663.956 137.827C663.096 137.327 662.147 137.001 661.161 136.868C660.176 136.734 659.174 136.797 658.212 137.051C657.251 137.305 656.349 137.746 655.558 138.349Z" fill="#3F3D56"/>
<path d="M659.786 137.885L651.077 143.961C650.309 144.463 649.656 145.122 649.161 145.895C648.666 146.668 648.341 147.537 648.207 148.445C648.073 149.353 648.133 150.279 648.382 151.162C648.632 152.045 649.066 152.865 649.656 153.568L661.055 167.304L667.13 174.621L671.183 179.503L680.248 190.424C681.53 191.889 683.306 192.832 685.238 193.072C687.169 193.312 689.122 192.834 690.724 191.727L697.25 187.175L699.421 185.66C700.504 184.939 701.349 183.913 701.85 182.713C702.351 181.512 702.487 180.191 702.24 178.913C702.021 177.852 701.542 176.862 700.844 176.033L674.059 143.756L670.262 139.188C668.981 137.721 667.205 136.777 665.273 136.537C663.34 136.296 661.387 136.776 659.786 137.885Z" fill="#455D7A"/>
<path d="M665.351 171.809C669.416 172.432 673.077 174.617 675.556 177.898C678.035 181.18 679.136 185.299 678.624 189.379C678.507 190.207 678.321 191.024 678.069 191.821L721.95 225.106L712.895 253.314L657.713 201.219C654.488 199.919 651.785 197.588 650.024 194.589C648.264 191.591 647.545 188.094 647.981 184.645C648.248 182.684 648.898 180.795 649.895 179.086C650.892 177.377 652.215 175.881 653.79 174.683C655.365 173.486 657.161 172.61 659.074 172.107C660.988 171.603 662.981 171.481 664.942 171.748C665.079 171.766 665.215 171.787 665.351 171.809Z" fill="#A0616A"/>
<path d="M844.319 122.446C848.154 123.227 851.777 124.824 854.94 127.13C858.103 129.436 860.732 132.397 862.649 135.81C864.566 139.222 865.725 143.008 866.048 146.909C866.371 150.81 865.85 154.735 864.521 158.417L843.165 217.564L781.455 304.763C781.455 304.763 707.45 273.503 701.847 258.052C696.244 242.601 701.304 237.27 696.244 242.601C691.185 247.933 684.769 247.301 686.305 244.861C687.841 242.421 687.033 242.473 684.771 239.917C682.51 237.362 673.383 224.802 673.383 224.802L689.761 199.128C689.761 199.128 714.856 204.921 718.199 210.433C721.543 215.944 713.14 215.764 721.543 215.944C729.946 216.125 738.519 204.694 732.38 216.057C726.242 227.42 727.861 231.381 735.455 229.581C743.049 227.78 761.483 244.495 761.483 244.495L814.43 137.104C817.093 131.702 821.47 127.334 826.877 124.683C832.284 122.031 838.417 121.244 844.319 122.446Z" fill="#455D7A"/>
<path d="M812.742 86.8421C828.083 71.5011 828.083 46.6285 812.742 31.2875C797.401 15.9465 772.528 15.9465 757.187 31.2875C741.846 46.6285 741.846 71.5011 757.187 86.8421C772.528 102.183 797.401 102.183 812.742 86.8421Z" fill="#A0616A"/>
<path d="M830.9 16.2695C827.975 -6.14874 776.265 -4.71866 771.383 16.3732C768.793 14.7533 762.204 15.8746 759.747 17.7365C757.29 19.5985 755.715 22.3358 754.173 24.9929C752.068 28.6835 737.338 41.1695 735.131 37.5292C730.164 29.3367 720.423 47.2387 727.899 59.2245C729.692 62.0984 764.335 57.4848 767.674 56.8139C770.004 56.3507 766.014 57.2118 767.674 56.8139C768.21 54.2137 773.622 40.7791 772.342 38.4429C773.684 38.7092 774.95 39.2692 776.05 40.0826C777.149 40.8961 778.055 41.9428 778.702 43.1477C778.964 43.6523 788.438 114.966 788.438 114.966C791.027 115.278 793.641 115.343 796.243 115.161C797.858 106.384 798.152 97.4153 797.115 88.5518C799.858 93.618 802.029 98.974 803.586 104.521C804.478 107.623 805.211 110.769 805.782 113.947C828.328 109.731 858.806 95.2091 864.367 70.5516C833.965 60.4298 857.918 38.4124 830.9 16.2695Z" fill="#2F2E41"/>
<path d="M487.05 128.923C487.554 125.461 483.927 122.066 478.949 121.342C473.971 120.618 469.528 122.838 469.024 126.301C468.52 129.763 472.147 133.158 477.125 133.882C482.102 134.606 486.546 132.386 487.05 128.923Z" fill="#E6E6E6"/>
<path d="M546.316 123.14C546.82 119.678 543.193 116.283 538.216 115.559C533.238 114.835 528.794 117.055 528.29 120.518C527.786 123.98 531.413 127.375 536.391 128.099C541.369 128.823 545.813 126.603 546.316 123.14Z" fill="#3F3D56"/>
<path d="M470.821 80.9429C471.325 77.48 467.698 74.0857 462.72 73.3615C457.743 72.6372 453.299 74.8573 452.795 78.3201C452.291 81.7829 455.918 85.1772 460.896 85.9014C465.874 86.6257 470.317 84.4057 470.821 80.9429Z" fill="#FF6584"/>
<path d="M445.069 61.2893C445.093 58.1103 443.319 55.5196 441.108 55.5029C438.896 55.4862 437.084 58.0497 437.06 61.2287C437.036 64.4077 438.809 66.9984 441.021 67.0151C443.232 67.0318 445.045 64.4683 445.069 61.2893Z" fill="#E6E6E6"/>
<path d="M436.335 24.6825C436.359 21.5035 434.586 18.9129 432.375 18.8962C430.163 18.8794 428.351 21.443 428.327 24.622C428.303 27.801 430.076 30.3916 432.287 30.4084C434.499 30.4251 436.311 27.8615 436.335 24.6825Z" fill="#3F3D56"/>
<path d="M504.248 89.1079C504.272 85.9288 502.499 83.3382 500.287 83.3215C498.076 83.3047 496.263 85.8683 496.239 89.0473C496.215 92.2263 497.989 94.817 500.2 94.8337C502.412 94.8504 504.224 92.2869 504.248 89.1079Z" fill="#E6E6E6"/>
<path d="M475.608 103.408C475.632 100.229 473.859 97.6379 471.647 97.6211C469.436 97.6044 467.623 100.168 467.599 103.347C467.575 106.526 469.349 109.117 471.56 109.133C473.772 109.15 475.584 106.587 475.608 103.408Z" fill="#FF6584"/>
<path d="M515.476 129.837C515.5 126.658 513.727 124.067 511.515 124.051C509.304 124.034 507.491 126.597 507.467 129.776C507.443 132.955 509.217 135.546 511.428 135.563C513.639 135.579 515.452 133.016 515.476 129.837Z" fill="#3F3D56"/>
<path d="M652.294 163.64C652.836 163.253 652.49 161.841 651.522 160.488C650.555 159.134 649.331 158.35 648.79 158.737C648.248 159.124 648.594 160.536 649.561 161.89C650.529 163.243 651.753 164.027 652.294 163.64Z" fill="#3F3D56"/>
<path d="M648.678 158.819C649.22 158.432 648.874 157.02 647.906 155.666C646.939 154.313 645.715 153.529 645.174 153.916C644.632 154.303 644.978 155.715 645.945 157.068C646.913 158.422 648.137 159.206 648.678 158.819Z" fill="#3F3D56"/>
</g>
<defs>
<clipPath id="clip0_43_42">
<rect width="1020.49" height="600" fill="white"/>
</clipPath>
</defs>
</svg>
